<svg width="1014" height="175" viewBox="0 0 1014 175" fill="none" xmlns="http://www.w3.org/2000/svg">
<path d="M934.844 4.60994C935.155 5.06339 935.441 5.53411 935.701 6.0221C936.012 6.47555 936.28 6.92107 936.506 7.35868C936.528 7.71421 936.295 8.0222 935.807 8.28265C935.369 8.50857 935.024 8.70787 934.772 8.88056C934.521 9.05325 934.328 9.25905 934.196 9.49797C934.079 9.65196 934.107 9.85492 934.28 10.1068C934.487 10.4091 934.651 10.5934 934.77 10.6596C934.332 10.8855 933.87 11.1287 933.382 11.3892C932.894 11.6496 932.387 11.7748 931.862 11.7646C931.26 12.3993 930.718 13.0671 930.236 13.768C929.804 14.4344 929.389 15.1259 928.992 15.8427C928.594 16.5594 928.154 17.2683 927.672 17.9692C927.19 18.6701 926.613 19.2875 925.942 19.8214C925.834 20.6361 925.514 21.4111 924.981 22.1466C924.449 22.882 923.873 23.6095 923.256 24.3291C922.638 25.0487 922.106 25.7841 921.658 26.5354C921.176 27.2363 920.923 28.0021 920.9 28.8326C919.86 29.6932 918.992 30.6956 918.295 31.8398C917.599 32.984 916.919 34.1533 916.257 35.3479C915.645 36.508 914.99 37.6601 914.294 38.8043C913.597 39.9485 912.721 40.9934 911.666 41.9389C911.57 42.4484 911.365 42.9593 911.05 43.4717C910.785 43.9495 910.495 44.4446 910.18 44.957C909.83 45.419 909.522 45.8889 909.258 46.3668C908.993 46.8446 908.855 47.3462 908.845 47.8716L908.694 47.9752C908.492 48.1133 908.307 48.1666 908.137 48.1349C907.967 48.1032 907.781 48.1564 907.58 48.2945C907.428 48.3982 907.345 48.4924 907.329 48.5773C906.5 49.9605 905.688 51.3688 904.893 52.8023C904.098 54.2358 903.236 55.6786 902.306 57.1308C900.462 59.9503 898.575 62.7618 896.646 65.5654C894.717 68.3691 893.044 71.3303 891.627 74.4492C892.454 76.8445 893.417 79.221 894.515 81.5789C895.578 83.8864 896.312 86.3082 896.718 88.8445L899.153 92.3965C899.305 93.6992 899.703 94.9817 900.346 96.2441C900.989 97.5065 901.674 98.6668 902.399 99.7248C902.675 100.128 902.934 100.506 903.176 100.858C903.434 101.126 903.683 101.436 903.925 101.789C905.11 100.384 906.21 98.964 907.225 97.5276C908.29 96.0567 909.39 94.6362 910.524 93.2661C911.057 92.5307 911.642 91.8708 912.278 91.2865C912.965 90.6677 913.574 89.9906 914.107 89.2551C914.557 88.7241 914.999 88.1253 915.431 87.459C915.828 86.7422 916.217 86.0679 916.599 85.4361C917.662 83.745 918.801 82.1122 920.018 80.5377C921.284 78.9287 922.663 77.4283 924.153 76.0367C924.38 75.2882 924.676 74.5304 925.038 73.7633C925.401 72.9962 925.885 72.4054 926.49 71.9909C926.943 71.6801 927.373 71.4966 927.779 71.4406C928.29 70.3496 928.987 69.2054 929.869 68.008C930.752 66.8105 931.731 65.9168 932.808 65.3268C932.818 64.8015 932.965 64.3675 933.249 64.025C933.498 63.6321 933.824 63.2975 934.227 63.0212C934.428 62.883 934.622 62.7873 934.808 62.7341C935.009 62.5959 935.236 62.4405 935.488 62.2678C935.75 61.5698 936.131 60.938 936.632 60.3724C937.133 59.8068 937.652 59.2663 938.187 58.7511C938.723 58.2359 939.216 57.7128 939.666 57.1817C940.133 56.5657 940.455 55.9008 940.632 55.1869C941.372 54.7537 942.064 54.5754 942.709 54.6517C943.404 54.6936 944.075 54.8628 944.723 55.1594C945.371 55.456 945.985 55.8124 946.567 56.2284C947.148 56.6445 947.763 57.0008 948.411 57.2974C948.586 57.7696 948.659 58.2007 948.631 58.5907C948.567 58.9304 948.479 59.2874 948.365 59.6616C948.251 60.0358 948.162 60.3928 948.099 60.7325C948.036 61.0721 948.1 61.4356 948.291 61.8228C946.528 63.0316 944.987 64.4578 943.67 66.1014C942.403 67.7104 941.188 69.395 940.025 71.1552C938.912 72.8809 937.731 74.6159 936.483 76.3602C935.251 78.0196 933.83 79.512 932.221 80.8375C932.141 81.2621 931.952 81.6881 931.652 82.1155L930.778 83.2705C930.494 83.613 930.27 83.9887 930.106 84.3974C929.908 84.7558 929.854 85.1632 929.944 85.6195C929.538 85.6755 929.159 85.8244 928.806 86.0662C927.95 86.6533 927.274 87.4499 926.779 88.456C926.283 89.462 925.532 90.3104 924.524 91.0012C924.121 91.2775 923.827 91.4423 923.641 91.4955C923.7 92.1216 923.547 92.7081 923.181 93.2551C922.866 93.7674 922.483 94.2891 922.032 94.8202C921.597 95.2663 921.197 95.7629 920.831 96.3098C920.516 96.8222 920.405 97.4166 920.499 98.0931C920.313 98.1463 920.119 98.242 919.918 98.3802L919.464 98.691C918.658 99.2436 917.83 100.034 916.979 101.061C916.144 102.004 915.759 103.009 915.823 104.075C915.351 104.251 914.964 104.442 914.662 104.649C913.956 105.133 913.43 105.716 913.083 106.398C912.702 107.03 912.355 107.712 912.042 108.445L911.105 110.642C910.792 111.375 910.36 112.041 909.809 112.641C909.777 115.404 910.338 118.167 911.492 120.93C912.646 123.694 913.995 126.472 915.539 129.265C917.133 132.023 918.71 134.756 920.27 137.464C921.865 140.222 923.102 142.891 923.983 145.472C924.838 146.071 925.651 146.772 926.424 147.575C927.197 148.379 927.945 149.199 928.667 150.037C929.424 150.925 930.181 151.814 930.938 152.702C931.695 153.59 932.493 154.376 933.332 155.06C934.309 155.945 935.427 156.549 936.685 156.872C938.028 157.21 939.213 157.805 940.241 158.656C940.527 158.533 940.796 158.386 941.048 158.213C941.385 158.056 941.705 157.874 942.007 157.667C943.821 156.424 945.166 154.983 946.043 153.345C946.97 151.673 947.676 149.893 948.16 148.006C948.678 146.17 949.077 144.267 949.357 142.298C949.721 140.345 950.247 138.466 950.936 136.661L952.372 135.676C952.448 135.032 952.457 134.396 952.398 133.77C952.339 133.144 952.322 132.526 952.348 131.915C952.374 131.305 952.485 130.711 952.681 130.132C952.911 129.604 953.294 129.082 953.83 128.567C953.463 127.707 953.419 126.886 953.696 126.103C953.974 125.32 953.938 124.457 953.587 123.512C953.722 123.494 953.865 123.433 954.016 123.329C954.419 123.053 954.653 122.745 954.716 122.405L955.124 120.57C955.251 119.89 955.403 119.194 955.58 118.48C955.842 117.782 956.079 117.101 956.291 116.438C957.027 114.378 957.763 112.318 958.498 110.259C959.269 108.249 959.792 106.15 960.069 103.961C960.154 103.977 960.247 103.95 960.348 103.881C960.751 103.605 960.941 103.289 960.92 102.933C960.898 102.578 961.199 102.26 961.822 101.981C961.814 101.321 961.78 100.677 961.721 100.051C961.628 99.3745 961.467 98.7073 961.238 98.0495L963.864 96.694C964.739 96.2422 965.579 95.74 966.386 95.1874C966.637 95.0147 966.864 94.8593 967.066 94.7211C967.283 94.498 967.458 94.267 967.591 94.0281C968.851 94.571 969.887 95.3793 970.697 96.4532C971.473 97.4767 972.324 98.4484 973.251 99.3683C973.15 99.4374 973.074 99.4892 973.024 99.5238C972.99 99.4734 972.922 99.4827 972.821 99.5518C972.569 99.7245 972.386 99.9979 972.273 100.372C972.175 100.661 972.086 101.018 972.007 101.443L971.769 102.717C971.69 103.141 971.601 103.498 971.503 103.788C971.191 104.52 970.819 105.22 970.387 105.886C969.99 106.603 969.617 107.302 969.27 107.985C968.923 108.667 968.636 109.382 968.409 110.131C968.216 110.929 968.192 111.76 968.339 112.622C967.608 113.716 966.919 114.818 966.272 115.927C965.676 117.002 965.123 118.085 964.612 119.176C964.532 119.601 964.478 120.008 964.449 120.398C964.421 120.789 964.459 121.169 964.566 121.541C963.516 122.927 962.849 124.384 962.564 125.912C962.329 127.406 962.121 128.993 961.939 130.673L961.812 130.649C961.459 130.891 961.319 131.172 961.391 131.493C961.513 131.78 961.288 132.045 960.715 132.29C960.483 134.004 960.148 135.678 959.712 137.31C959.276 138.942 958.814 140.591 958.327 142.258C957.841 143.925 957.354 145.592 956.867 147.258C956.415 148.975 956.073 150.691 955.841 152.405C955.324 153.056 954.867 153.739 954.47 154.456C954.072 155.173 953.93 155.937 954.042 156.749L953.815 156.904C953.261 157.284 952.944 157.687 952.865 158.111C952.836 158.501 952.809 159.002 952.783 159.612C951.897 160.589 951.004 161.609 950.103 162.671C949.201 163.733 948.171 164.661 947.013 165.456C946.207 166.008 945.322 166.392 944.359 166.608C943.446 166.789 942.465 166.87 941.414 166.849C940.448 166.845 939.473 166.773 938.488 166.633C937.554 166.459 936.663 166.292 935.813 166.134C934.82 165.334 933.692 164.552 932.428 163.789C931.25 163.042 930.315 162.164 929.624 161.156C929.451 160.904 929.304 160.635 929.182 160.349C929.144 160.078 929.057 159.842 928.918 159.641C928.677 159.288 928.447 159.223 928.23 159.446C928.063 159.635 927.825 159.612 927.517 159.379C927.071 158.944 926.598 158.417 926.099 157.796C925.684 157.192 925.237 156.647 924.756 156.162C923.811 155.107 922.798 154.061 921.717 153.024C920.686 151.953 919.648 150.925 918.602 149.938C918.734 149.7 918.764 149.42 918.692 149.099C918.705 148.793 918.718 148.488 918.731 148.183C918.304 147.884 917.842 147.534 917.345 147.134C916.934 146.749 916.555 146.305 916.21 145.801C915.519 144.794 915.379 143.779 915.789 142.757C915.548 142.404 915.257 142.196 914.917 142.133C914.663 142.085 914.397 141.86 914.121 141.457C914.052 141.356 913.887 141.062 913.626 140.574C913.382 140.001 913.103 139.378 912.789 138.704C912.526 137.996 912.254 137.33 911.975 136.707C911.696 136.083 911.513 135.654 911.425 135.418C910.189 132.858 908.937 130.384 907.669 127.994C906.367 125.554 905.165 123.045 904.065 120.467C903.285 120.41 902.422 120.556 901.478 120.907C900.55 121.173 899.796 121.209 899.218 121.013C898.724 120.833 898.212 120.517 897.68 120.067C897.149 119.616 896.746 119.189 896.469 118.786C895.468 117.325 895.253 115.769 895.825 114.118C896.362 112.417 897.233 111.042 898.44 109.993C897.886 107.78 897.139 105.664 896.197 103.643C895.272 101.537 894.271 99.4825 893.195 97.4802L889.914 91.3976C888.803 89.3449 887.81 87.2483 886.936 85.1078L886.482 85.4187C885.475 86.1094 884.596 86.9341 883.846 87.8926C883.096 88.8511 882.217 89.6757 881.209 90.3665L881.058 90.4701C878.802 90.3129 877.122 89.4281 876.017 87.8158C875.361 86.8586 874.906 85.7631 874.653 84.5295C875.252 83.6746 875.706 82.7708 876.016 81.818C876.325 80.8651 876.635 79.9123 876.944 78.9595C877.27 77.9218 877.647 76.9596 878.076 76.073C878.505 75.1864 879.114 74.3992 879.901 73.7113C879 72.1811 878.25 70.5473 877.652 68.8098C877.053 67.0724 876.253 65.4732 875.252 64.012C875.045 63.7097 874.812 63.4247 874.555 63.157C874.347 62.8547 874.09 62.5869 873.782 62.3537C873.824 61.6585 873.722 61.0244 873.478 60.4515C873.283 59.844 872.996 59.2632 872.616 58.709C872.202 58.1044 871.754 57.5595 871.274 57.0744C870.809 56.5043 870.336 55.9767 869.855 55.4916C870.171 54.9792 870.385 54.5359 870.499 54.1617C870.578 53.7371 870.65 53.3549 870.713 53.0153C870.827 52.641 871.008 52.2575 871.257 51.8646C871.506 51.4716 871.958 51.0507 872.613 50.6017C873.571 49.9455 874.515 49.5944 875.446 49.5485C876.393 49.4177 877.326 49.4819 878.244 49.7411C879.163 50.0003 880.057 50.3869 880.928 50.9009C881.849 51.3803 882.745 51.8771 883.616 52.391C883.895 53.0143 883.944 53.5728 883.764 54.0665C883.584 54.5602 883.507 55.0949 883.531 55.6707C884.184 56.4077 884.82 57.1196 885.439 57.8062C886.023 58.4425 886.542 59.1983 886.993 60.0735C887.67 59.98 888.235 59.7779 888.688 59.4671C889.444 58.949 889.986 58.2812 890.314 57.4637C890.693 56.6116 890.767 55.7466 890.535 54.8685L890.686 54.7649C890.837 54.6613 890.998 54.6253 891.168 54.657C891.388 54.6542 891.599 54.5837 891.8 54.4455L892.103 54.2383C892.311 53.3546 892.657 52.5622 893.139 51.8613C893.587 51.11 894.077 50.3667 894.61 49.6312C895.143 48.8958 895.65 48.1776 896.132 47.4767C896.631 46.6909 897.026 45.864 897.32 44.9961C897.726 44.9401 898.105 44.7911 898.458 44.5494C898.962 44.204 899.372 43.7751 899.687 43.2628C900.053 42.7158 900.393 42.1862 900.708 41.6738C900.989 41.1111 901.312 40.5563 901.678 40.0093C902.094 39.4279 902.604 38.9299 903.209 38.5155C903.31 38.4464 903.453 38.3853 903.639 38.332C903.79 38.2284 903.916 38.1421 904.017 38.073C904.369 37.8312 904.484 37.5671 904.362 37.2807C904.24 36.9942 904.084 36.7675 903.896 36.6005C905.232 35.0922 906.307 33.689 907.12 32.3908C907.949 31.0077 908.853 29.4627 909.83 27.7557C909.796 27.7053 909.829 27.6456 909.93 27.5765C910.081 27.4729 910.233 27.4794 910.387 27.596C910.541 27.7126 910.653 27.8213 910.722 27.9221C910.921 27.5637 910.899 27.2082 910.657 26.8555C910.466 26.4683 910.385 26.0796 910.414 25.6896C910.65 25.6018 910.944 25.437 911.297 25.1953C911.75 24.8844 912.134 24.4728 912.45 23.9605C912.815 23.4136 913.139 22.8587 913.419 22.296C913.7 21.7332 913.998 21.1957 914.314 20.6833C914.629 20.1709 915.013 19.7593 915.467 19.4485C915.87 19.1722 916.266 19.0484 916.656 19.0773C916.855 18.7189 917.019 18.3102 917.149 17.851C917.244 17.3415 917.468 16.9658 917.82 16.7241C917.921 16.655 918.014 16.6284 918.099 16.6442C918.234 16.6255 918.37 16.6069 918.505 16.5882C918.584 16.1636 918.673 15.8066 918.771 15.5173C918.919 15.1935 918.872 14.8552 918.63 14.5025C920.356 13.0231 921.793 11.4458 922.941 9.77049C924.104 8.01031 925.053 6.1004 925.789 4.04076C926.413 3.76162 927.028 3.52493 927.635 3.3307C928.259 3.05156 928.847 2.72203 929.402 2.34212C930.084 2.68911 930.741 3.05337 931.373 3.4349C932.005 3.81642 932.731 3.68843 933.553 3.0509C933.777 3.26828 933.992 3.52812 934.199 3.83042C934.456 4.09818 934.672 4.35802 934.844 4.60994Z" fill="white"/>
<path d="M795.812 145.444L792.171 149.415C789.911 151.897 786.647 153.262 783.258 153.262H736.307V77.184C736.307 73.8331 737.688 70.6063 740.199 68.3723L740.575 68H723L723.377 68.3723C725.762 70.6063 727.268 73.8331 727.268 77.184V145.94C727.268 149.291 725.762 152.394 723.377 154.752L723 155H795.812V145.444Z" fill="white"/>
<path d="M812.929 145.94V77.184C812.929 73.8331 814.31 70.6063 816.82 68.3723L817.197 68H799.622L799.873 68.3723C802.384 70.6063 803.764 73.8331 803.764 77.184V145.94C803.764 149.291 802.384 152.518 799.873 154.752L799.622 155H817.197L816.82 154.752C814.31 152.518 812.929 149.291 812.929 145.94Z" fill="white"/>
<path d="M824.876 68L825.127 68.3723C827.638 70.6063 829.019 73.8331 829.019 77.184V145.94C829.019 149.291 827.638 152.518 825.127 154.752L824.876 155H842.452L842.075 154.752C839.564 152.394 838.183 149.291 838.183 145.94V112.431H851.616C855.005 112.431 858.269 113.796 860.529 116.278L864.169 120.25V102.874L860.529 106.846C858.269 109.204 855.005 110.693 851.616 110.693H838.183V69.8616H870.321C873.71 69.8616 876.974 71.2268 879.234 73.709L883 77.6805V68H824.876Z" fill="white"/>
<path d="M71.8125 137.852L71.4377 138.608C71.4377 138.861 63.9409 153.611 42.8251 153.737H42.5752C37.3275 153.737 32.2047 152.224 27.7067 149.577C24.4581 147.433 21.4594 144.786 19.2104 141.634C16.4616 138.23 14.3375 134.448 12.7132 130.414C7.84034 118.185 7.84034 104.569 12.7132 92.3403C14.3375 88.306 16.4616 84.5239 19.0855 81.12C21.4594 77.9682 24.3332 75.3207 27.5818 73.3036C32.0798 70.53 37.0776 69.0171 42.3253 69.0171H42.5752C45.324 69.0171 47.9479 69.6475 50.4468 70.7821C54.4451 72.7993 57.6937 76.0771 60.0676 79.9853C60.4425 80.6157 61.8169 80.4896 63.1913 79.6071C64.0659 79.1028 64.9405 78.4725 65.6902 77.716C66.9396 76.4553 67.1895 74.9425 66.3149 74.3121C62.0668 70.6561 56.819 68.3868 51.3214 67.6304C48.6976 67.2521 46.0737 67.1261 43.4499 67.1261H42.5752C41.0759 67.1261 39.5765 67.2521 38.2021 67.5043C34.0789 67.8825 30.2056 69.0171 26.4572 70.53C22.459 72.1689 18.7106 74.4382 15.3371 77.2118C11.3388 80.4896 8.09023 84.3978 5.71626 88.8103C-1.90542 102.93 -1.90542 119.824 5.71626 133.818C8.09023 138.356 11.3388 142.264 15.3371 145.542C18.7106 148.316 22.459 150.585 26.4572 152.224C30.2056 153.737 34.0789 154.745 38.2021 155.25C39.3266 155.376 40.5761 155.502 41.7006 155.502C41.8256 155.502 42.7002 155.502 42.8251 155.502H43.4499C65.3154 155.124 73.062 139.617 73.062 139.491L73.4368 138.608L71.8125 137.852Z" fill="white"/>
<path d="M151.601 89.1885C149.227 84.776 146.228 80.8678 142.48 77.4639C140.856 76.0771 139.231 74.8164 137.482 73.6818L134.733 72.0428C133.859 71.5386 132.734 71.1603 131.735 70.6561C128.111 69.0171 124.238 67.8825 120.365 67.3782C118.865 67.1261 117.366 67 115.992 67H115.867C114.367 67 112.993 67.1261 111.494 67.3782C107.495 67.8825 103.747 69.0171 100.123 70.6561C99.1239 71.1603 97.9994 71.5386 97.1248 72.0428L94.376 73.6818C92.6267 74.8164 91.0024 76.0771 89.3781 77.4639C85.6298 80.8678 82.6311 84.776 80.2571 89.1885C73.3851 103.056 73.3851 119.446 80.2571 133.313C82.5061 137.852 85.6298 141.76 89.3781 145.038C91.0024 146.425 92.6267 147.685 94.376 148.946L97.1248 150.459C97.9994 151.089 99.1239 151.468 100.123 151.972C103.747 153.611 107.495 154.745 111.494 155.25C112.993 155.502 114.367 155.502 115.867 155.502H115.992C117.366 155.502 118.865 155.502 120.365 155.25C124.238 154.745 128.111 153.611 131.735 151.972C132.734 151.468 133.859 151.089 134.733 150.459L137.482 148.946C139.231 147.685 140.856 146.425 142.48 145.038C146.228 141.76 149.227 137.852 151.601 133.313C158.473 119.446 158.473 103.056 151.601 89.1885ZM144.354 130.036C142.855 134.07 140.856 137.852 138.482 141.382C137.357 142.895 136.233 144.282 134.983 145.668L132.859 147.559L132.359 147.938L131.735 148.442L130.485 149.324C126.237 152.098 121.239 153.611 116.241 153.737H115.992H115.867C110.744 153.737 105.746 152.224 101.498 149.324C100.623 148.82 99.8736 148.19 98.9989 147.559L96.8749 145.668C95.6254 144.282 94.5009 142.895 93.3764 141.382C90.8775 137.852 89.0033 134.07 87.5039 130.036C83.0059 117.933 83.0059 104.569 87.5039 92.4664C89.0033 88.5582 90.8775 84.776 93.3764 81.246C94.376 79.7332 95.6254 78.3464 96.8749 76.9596L98.9989 75.0686L99.4987 74.5643L100.123 74.186L101.373 73.3036C105.621 70.4039 110.494 68.8911 115.617 68.8911H115.867H115.992C121.114 68.8911 126.112 70.4039 130.36 73.1775C131.235 73.8078 131.985 74.3121 132.734 74.9425L134.858 76.9596C136.233 78.2203 137.357 79.7332 138.482 81.246C140.856 84.6499 142.855 88.5582 144.354 92.4664C148.852 104.569 148.852 117.933 144.354 130.036Z" fill="white"/>
<path d="M238.951 97.2571C237.701 93.7271 235.952 90.3231 233.828 87.2974C230.704 82.7589 226.831 78.8507 222.208 75.951C218.335 73.4296 214.212 71.5386 209.838 70.0257C205.715 68.765 201.467 67.8825 197.094 67.5043C195.47 67.2521 193.72 67.1261 192.096 67.1261H163.733L163.983 67.5043C166.482 69.7736 167.857 73.0514 167.857 76.4553V146.299C167.857 149.703 166.482 152.98 163.983 155.25L163.733 155.628H192.096C193.72 155.628 195.22 155.502 196.719 155.376C205.84 154.619 214.586 151.72 222.208 146.929C229.955 141.76 235.827 134.322 238.951 125.497C242.074 116.294 242.074 106.46 238.951 97.2571ZM230.579 122.849C229.705 125.749 228.58 128.523 227.081 131.296C224.957 135.457 222.083 139.239 218.835 142.517C215.836 145.542 212.337 148.064 208.589 149.955C203.466 152.476 197.844 153.737 192.096 153.737H176.978V69.0171H192.096C197.844 69.0171 203.466 70.2778 208.589 72.6732C212.337 74.6903 215.836 77.2118 218.835 80.1114C222.083 83.5153 224.957 87.2974 227.081 91.4578C232.329 101.039 233.578 112.26 230.579 122.849Z" fill="white"/>
<path d="M292.653 153.737H261.292V112.26H274.661C278.034 112.26 281.283 113.646 283.532 116.168L287.28 120.202V102.552L283.532 106.586C281.283 108.982 278.034 110.495 274.661 110.495H261.292V69.0171H292.653C296.027 69.0171 299.275 70.4039 301.524 72.9253L305.272 76.9596V67.1261H248.047L248.297 67.5043C250.796 69.7736 252.171 73.0514 252.171 76.4553V146.299C252.171 149.703 250.796 152.98 248.297 155.25L248.047 155.502H305.272V145.794L301.524 149.829C299.275 152.35 296.027 153.737 292.653 153.737Z" fill="white"/>
<path d="M370.241 67L370.866 67.6304C373.615 69.8996 375.239 73.3036 375.239 76.8335V137.348L325.136 67.1261H310.392L311.017 67.7564C313.641 70.0257 315.265 73.4296 315.265 76.9596V145.668C315.265 149.324 313.641 152.728 311.017 154.998L310.392 155.628H322.012L321.388 154.998C318.639 152.728 317.014 149.324 317.014 145.668V71.6646L317.139 71.5386L376.988 155.502V76.8335C376.988 73.3036 378.613 69.8996 381.237 67.6304L381.986 67H370.241Z" fill="white"/>
<path d="M450.825 153.863C449.451 152.602 448.451 151.089 447.702 149.324L415.591 67.2521L388.478 136.465C387.478 138.734 386.853 141.256 386.603 143.777C386.228 148.82 387.728 153.737 390.852 157.519C391.476 158.402 392.976 158.023 394.1 156.763C394.225 156.637 394.35 156.384 394.475 156.258L394.975 155.628L395.1 155.502L395.599 154.872C395.724 154.619 395.849 154.493 395.974 154.241C396.849 152.854 397.099 151.594 396.599 151.215C393.35 149.703 390.976 146.929 389.852 143.525C389.227 141.508 389.352 139.239 390.102 137.222C390.102 137.222 390.102 137.222 390.102 137.096L394.85 124.867C395.474 124.236 399.348 120.328 408.469 120.58C414.341 120.706 420.089 119.067 424.837 115.79L437.081 146.929C438.331 149.955 437.581 153.359 435.207 155.628H452.7L450.825 153.863ZM408.469 118.689C404.221 118.437 399.973 119.446 396.224 121.589L411.717 82.1285L424.212 114.025C419.589 117.176 414.091 118.815 408.469 118.689Z" fill="white"/>
<path d="M544.046 146.299V76.4553C544.046 73.0514 545.42 69.7736 547.919 67.5043L548.169 67.1261H536.674L503.688 142.012L470.703 67.1261H454.46L458.333 70.9082C460.832 73.1775 462.206 76.4553 462.206 79.8593V145.668C462.206 149.324 460.707 152.728 457.958 154.998L457.333 155.502H468.953L468.329 154.998C465.58 152.728 464.08 149.324 464.08 145.668V74.6903L499.69 155.502L534.925 75.5728V146.299C534.925 149.703 533.55 152.98 531.051 155.25L530.676 155.628H548.169L547.919 155.25C545.42 152.98 544.046 149.703 544.046 146.299Z" fill="white"/>
<path d="M600.38 153.737H569.019V112.26H582.388C585.762 112.26 589.01 113.646 591.259 116.168L595.008 120.202V102.552L591.259 106.586C589.01 108.982 585.762 110.495 582.388 110.495H569.019V69.0171H600.38C603.754 69.0171 607.003 70.4039 609.252 72.9253L613 76.9596V67.1261H555.775L556.025 67.5043C558.524 69.7736 559.898 73.0514 559.898 76.4553V146.299C559.898 149.703 558.524 152.98 556.025 155.25L555.775 155.502H613V145.794L609.252 149.829C607.003 152.35 603.754 153.737 600.38 153.737Z" fill="white"/>
<path d="M668.5 94.9784C671 94.9784 673 92.9832 673 90.4892C673 87.9952 671 86 668.5 86C666 86 664 87.9952 664 90.4892C664 92.9832 666 94.9784 668.5 94.9784ZM668.5 138C671 138 673 136.005 673 133.511C673 131.017 671 128.897 668.5 128.897C666 128.897 664 131.017 664 133.511C664 136.005 666 138 668.5 138Z" fill="white"/>
</svg>
